<svg xmlns="http://www.w3.org/2000/svg" viewBox="0 0 213 162"><defs><style>.cls-1{fill:#b8b8b8;}.cls-2{fill:#323232;}.cls-3{fill:#f5f5f5;}.cls-4{fill:none;}</style></defs><title>Ресурс 5</title><g id="Слой_2" data-name="Слой 2"><g id="Слой_1-2" data-name="Слой 1"><path class="cls-1" d="M67.6,136a9.56,9.56,0,0,1-8.26-4.74L45.77,107.78a9.52,9.52,0,0,1,3.47-13L155.37,33.53a9.4,9.4,0,0,1,4.72-1.26A9.54,9.54,0,0,1,168.35,37l13.57,23.51a9.52,9.52,0,0,1-3.47,13L72.32,134.77A9.53,9.53,0,0,1,67.6,136Z"/><path class="cls-2" d="M160.09,34.77h0a7,7,0,0,1,6.09,3.49l13.58,23.51a7,7,0,0,1-2.56,9.56L71.07,132.6a6.91,6.91,0,0,1-3.47.93A7,7,0,0,1,61.51,130L47.93,106.53A7,7,0,0,1,50.49,97L156.62,35.69a7,7,0,0,1,3.47-.92m0-5a12,12,0,0,0-6,1.59L48,92.64A12,12,0,0,0,43.6,109l13.58,23.51a12,12,0,0,0,10.42,6,11.87,11.87,0,0,0,6-1.6L179.7,75.66a12,12,0,0,0,4.39-16.39L170.51,35.76a12,12,0,0,0-10.42-6Z"/><path class="cls-1" d="M50.28,148.5a27.84,27.84,0,0,1-12.59-3l16.89-9.76-1.95-16.55-13.31-9.86-17,9.82a27.95,27.95,0,1,1,28,29.33Z"/><path class="cls-2" d="M50.22,95.07a25.47,25.47,0,1,1-6.77,50l10.95-6.32,2.85-1.65-.38-3.27L55.24,120,55,117.85l-1.73-1.29-11.12-8.24-2.63-1.95L36.65,108l-11.11,6.41A25.48,25.48,0,0,1,50.22,95.07m0-5a30.48,30.48,0,0,0-30.29,33.37l19.22-11.1,11.12,8.24,1.63,13.84L32.76,145.47a30.46,30.46,0,1,0,17.46-55.4Z"/><path class="cls-1" d="M178.57,74.43a28,28,0,1,1,12.62-52.89l-17.13,9.31,1.63,17.31,14.23,10.18,16.52-10.13a28,28,0,0,1-27.87,26.22Z"/><path class="cls-2" d="M178.5,16v5h0a25.73,25.73,0,0,1,6.75.92l-10.94,5.95-2.91,1.57.31,3.29,1.37,14.53.22,2.27,1.85,1.33,12,8.55,2.69,1.92,2.83-1.73,10.44-6.39a25.44,25.44,0,0,1-46.58,6A25.45,25.45,0,0,1,178.5,21V16m0,0a30.46,30.46,0,1,0,30.38,27.79L190,55.34l-12-8.55L176.7,32.26l19.52-10.6A30.59,30.59,0,0,0,178.5,16Z"/><rect class="cls-3" x="82.42" y="87.96" width="78" height="13" rx="6" ry="6" transform="translate(-30.96 73.36) rotate(-30)"/><path class="cls-1" d="M158.8,136.23a9.56,9.56,0,0,1-4.72-1.26L48,73.69a9.5,9.5,0,0,1-3.48-13L58.05,37.21a9.56,9.56,0,0,1,8.26-4.75A9.41,9.41,0,0,1,71,33.73L177.16,95a9.52,9.52,0,0,1,3.48,13l-13.58,23.51A9.56,9.56,0,0,1,158.8,136.23Z"/><path class="cls-2" d="M66.32,35h0a7,7,0,0,1,3.46.93L175.91,97.17a7,7,0,0,1,2.56,9.56L164.9,130.24a7.06,7.06,0,0,1-6.1,3.49,7,7,0,0,1-3.47-.93L49.21,71.53A7,7,0,0,1,46.65,62L60.22,38.46a7,7,0,0,1,6.1-3.5m0-5a12,12,0,0,0-10.43,6L42.31,59.47a12,12,0,0,0,4.4,16.39l106.12,61.27a12,12,0,0,0,16.4-4.39l13.57-23.51a12,12,0,0,0-4.39-16.39L72.28,31.56a11.93,11.93,0,0,0-6-1.6Z"/><path class="cls-1" d="M49.22,75.43A28,28,0,0,1,21.34,49.08l16.89,9.75,13.35-10,1.89-16.45-17-9.81a28.34,28.34,0,0,1,12.81-3.1,28,28,0,0,1-.07,55.93Z"/><path class="cls-2" d="M49.29,22A25.47,25.47,0,1,1,24.62,53.86l10.93,6.31,2.85,1.65,2.64-2,11.17-8.34,1.73-1.29.25-2.14,1.58-13.75.37-3.26L53.3,29.43,42.19,23a25.86,25.86,0,0,1,7.1-1m0-5a30.59,30.59,0,0,0-17.72,5.66L50.8,33.76,49.22,47.51,38.05,55.84,18.9,44.79A30.46,30.46,0,1,0,49.29,17Z"/><path class="cls-1" d="M177.51,149.5a28,28,0,1,1,28-29.47l-16.64-10.18-14.18,10.06L173,137.32l17,9.26A27.88,27.88,0,0,1,177.51,149.5Z"/><path class="cls-2" d="M177.57,91.07v5a25.47,25.47,0,0,1,24.59,19l-10.63-6.5-2.81-1.73L186,108.76l-11.9,8.46-1.86,1.32-.23,2.27-1.42,14.62-.32,3.3,2.91,1.58L184,146.17a25.46,25.46,0,1,1-6.42-50.1v-5m0,0A30.47,30.47,0,1,0,195,146.47L175.6,135.92,177,121.29l11.9-8.45,18.94,11.6a30.48,30.48,0,0,0-30.29-33.37Z"/><rect class="cls-3" x="100.92" y="57.06" width="13" height="78" rx="6" ry="6" transform="translate(-29.48 141.06) rotate(-60)"/><rect id="_Фрагмент_" data-name="&lt;Фрагмент&gt;" class="cls-4" width="213" height="162"/></g></g></svg>