<svg xmlns="http://www.w3.org/2000/svg" viewBox="0 0 618.08 285.49"><defs><style>.cls-1{fill:#b2a4b3;}.cls-2{fill:#776e78;}.cls-3{fill:#eddbef;}.cls-4{fill:#f1e2f2;}.cls-5{fill:#f8f1f9;}.cls-6{fill:#fbf8fc;}.cls-7{fill:#f4e9f5;}</style></defs><title>Ресурс 8</title><g id="Слой_2" data-name="Слой 2"><g id="Слой_1-2" data-name="Слой 1"><path class="cls-1" d="M575.55,240.49h-543A31.5,31.5,0,0,1,1.05,209h0c0-17.39-6.14-51.75,11.25-51.75l594.75,25.25c16.17,0,10.06,19.53,9.12,36.25a8,8,0,0,1-3.35,6.11C605.87,229.73,589,240.49,575.55,240.49Z"/><path class="cls-2" d="M600.05,182.49l-590-25-7.2-44.67A21.4,21.4,0,0,1,24.49,89.38L92,95.2l44-65.73c10.09-16,32.09-25,47.75-27L364.19,0c18.12-.73,29.86,12.46,41.21,27.08L472,116.2l102.7,9.48A27.51,27.51,0,0,1,598.92,152Z"/><circle class="cls-3" cx="120.55" cy="235.99" r="49.5"/><circle class="cls-3" cx="454.55" cy="235.99" r="49.5"/><path class="cls-4" d="M268.05,108.49H124.42a13.77,13.77,0,0,1-11.55-21.27l28.44-43.8a26.2,26.2,0,0,1,22-11.93H268.05Z"/><path class="cls-4" d="M436,108.49h-145v-77h85.37a23.81,23.81,0,0,1,18.78,9.18L440.65,99A5.88,5.88,0,0,1,436,108.49Z"/><path class="cls-5" d="M170.05,99.2h-30a10.45,10.45,0,0,1-8.76-16.14L152.9,49.84a19.87,19.87,0,0,1,16.67-9.05h.48Z"/><path class="cls-5" d="M313.83,96.23h-5.55A4.23,4.23,0,0,1,304.05,92V48a4.24,4.24,0,0,1,4.23-4.24h5.64A4.23,4.23,0,0,1,318.15,48l-.09,44A4.22,4.22,0,0,1,313.83,96.23Z"/><rect class="cls-6" x="306.05" y="53.49" width="5" height="38"/><circle class="cls-7" cx="454.55" cy="235.99" r="32.5"/><circle class="cls-7" cx="120.55" cy="235.99" r="32.5"/></g></g></svg>